<svg xmlns:xlink="http://www.w3.org/1999/xlink" xmlns="http://www.w3.org/2000/svg" focusable="false" class="icon" width="24"  height="24" ><defs><symbol xmlns="http://www.w3.org/2000/svg" viewBox="0 0 24 24" id="custom-ellucian"><path fill-rule="evenodd" d="M12.607 7.17l-2.255 5.583 2.356.952 3.248-8.038a7.54 7.54 0 0 0-1.16-.589c-3.83-1.547-8.186.298-9.73 4.12-1.545 3.823.308 8.176 4.137 9.724 3.83 1.547 8.187-.298 9.732-4.12a7.461 7.461 0 0 0-1.14-7.515l-1.222 3.025a4.837 4.837 0 0 1-.045 3.517c-1.007 2.491-3.85 3.692-6.35 2.682-2.501-1.01-3.712-3.85-2.706-6.34a4.87 4.87 0 0 1 5.135-3zm-4.352 14.1C3.135 19.2.662 13.373 2.73 8.254 4.799 3.135 10.626.662 15.745 2.73c5.12 2.068 7.593 7.895 5.524 13.014-2.068 5.12-7.895 7.593-13.014 5.524z"></path></symbol></defs><use xlink:href="#custom-ellucian" fill="#FFFFFF"></use></svg>