<?xml version="1.0" encoding="UTF-8"?><svg id="Layer_1" xmlns="http://www.w3.org/2000/svg" xmlns:xlink="http://www.w3.org/1999/xlink" viewBox="0 0 614.53 614.44"><defs><style>.cls-1{fill:url(#linear-gradient);stroke-width:0px;}</style><linearGradient id="linear-gradient" x1="40.75" y1="153.78" x2="573.47" y2="461.34" gradientUnits="userSpaceOnUse"><stop offset="0" stop-color="#10b1e7"/><stop offset=".32" stop-color="#4070b9"/><stop offset=".5" stop-color="#5852a3"/><stop offset=".6" stop-color="#654c91"/><stop offset=".79" stop-color="#893f64"/><stop offset="1" stop-color="#b72f2b"/></linearGradient></defs><path class="cls-1" d="m417.81,21.06c8.13,2.54,17.85,7.3,27.53,12.02,12.18,5.94,24.07,12.54,35.37,20.1,6.27,4.2,12.45,8.52,18.68,12.77,1.52,1.04,2.56,1.98,1.24,4.1-10.88,17.41-25.75,30.12-45,37.24-19.31,7.15-38.91,7.6-58.62,1.14-9.88-3.24-18.98-7.9-27.09-14.3-18.98-14.98-30.12-34.55-33.52-58.5-1.59-11.2-.68-22.27,1.88-33.25.4-1.7,1.01-2.24,2.88-1.94,17.49,2.85,34.76,6.54,51.68,11.89,7.69,2.43,15.31,4.97,24.98,8.73Zm182.66,378.68c2.99-9.39,5.79-18.83,8.12-28.4,2.43-9.98,4.09-20.1,5.85-30.2.24-1.37.12-2.2-1.66-2.43-2.78-.36-5.49-1.29-8.27-1.7-21.89-3.25-42.39.79-61.1,12.58-17.15,10.8-29.19,25.86-36.06,45.07-3.67,10.28-5.73,20.74-5.32,31.65,1.19,32.07,15.4,56.72,42.3,74.16,2.02,1.31,2.92,1.32,4.48-.79,17.1-23.21,31.22-48.08,43.2-77.03,2.37-6.03,5.75-14.34,8.48-22.9Zm-390.36,104.7c-19.66-4.82-38.88-3.1-57.29,5.06-17.1,7.57-30.55,19.58-40.23,35.72-.97,1.62-.43,2.17.8,3.03,6.53,4.53,12.94,9.23,19.61,13.56,14.88,9.66,30.48,18.02,46.61,25.32,12.85,5.82,26.11,10.64,39.6,14.89,17.42,5.49,35.17,9.35,53.15,12.36,2,.34,2.4-.41,2.77-1.9,2.29-9.35,3.4-18.86,2.42-28.43-3.64-35.43-22.03-60.32-54.16-75.19-4.33-1.96-8.77-3.3-13.27-4.41ZM110.16,211.54c4.85-18.32,3.82-36.4-2.9-53.97-7.32-19.14-19.96-34.05-37.58-44.68-1.43-.86-2.12-.59-2.94.61-2.39,3.48-4.81,6.94-7.24,10.4-12.65,18.01-23.41,37.09-32.15,57.28-5.96,13.78-11.35,27.77-15.68,42.2-4.87,16.23-8.28,32.72-11.13,49.37-.25,1.43-.05,2.26,1.63,2.52,2.87.45,5.69,1.22,8.56,1.69,40.14,6.45,80.45-16.12,95.54-54.29,1.43-3.23,2.81-7.1,3.88-11.12Zm227.62,399.94c.49,2.13,1.06,2.95,3.57,2.45,9.58-1.88,19.22-3.41,28.76-5.59,25.47-5.83,49.9-14.62,73.4-25.9,18.09-8.69,35.31-18.98,51.61-30.77,7.16-5.18,7.19-5.07,1.84-12.28-13.21-17.78-30.3-29.77-51.94-35.05-21.7-5.3-42.57-2.67-62.22,7.64-18.75,9.83-32.28,24.77-40.85,45.45-7.08,16.85-8.5,35.2-4.16,54.05ZM274.91,49.29c5.02-15.79,5.08-31.66,1.29-47.68-.33-1.38-.84-1.8-2.26-1.54-7.03,1.3-14.12,2.33-21.11,3.8-23.51,4.95-46.33,12.08-68.4,21.65-12.04,5.22-23.75,11.06-35.15,17.52-12.09,6.85-23.61,14.61-34.9,22.72-1.58,1.13-1.47,1.89-.58,3.39,9.41,15.79,22.59,27.43,39.19,35.09,15.93,7.35,32.74,9.96,50.08,7.1,32.55-5.35,55.26-23.59,68.81-53.45,1-2.92,2.09-5.72,3.01-8.61Zm289.55,225.19c15.68,5.02,31.44,5.22,47.39,1.58,2.12-.49,2.49-1.35,2.12-3.3-1.13-5.94-1.95-11.95-3.18-17.87-5.63-27.13-14-53.34-25.7-78.52-10.19-21.93-22.42-42.58-36.69-62.07-1.17-1.59-1.89-1.79-3.58-.75-18.68,11.6-31.65,27.67-38.52,48.62-7.82,23.86-5.71,47.01,5.79,69.12,9.78,18.78,24.86,32.12,44.38,40.38,2.66.96,5.28,1.96,7.98,2.82ZM107.93,450.96c4.44-13.25,5.59-26.76,3.45-40.52-3.01-19.32-11.42-35.98-25.3-49.79-9.56-9.51-20.82-16.28-33.55-20.76-16.73-5.88-33.64-6.47-50.81-2.42-1.47.35-1.92,1.02-1.63,2.57,1.18,6.34,2.06,12.74,3.38,19.05,3.35,15.97,7.6,31.69,13.02,47.1,4.68,13.33,10.07,26.37,16.31,39.01,9.38,18.99,20.43,37.01,32.99,54.1,1.11,1.51,1.79,1.68,3.28.76,16.77-10.27,28.93-24.48,36.59-42.57.89-2.14,1.54-4.35,2.28-6.54Zm170.85,23.2c.09,15.59,12.55,27.95,28.1,27.87,15.28-.08,28.02-12.91,27.78-27.97-.25-15.69-12.68-28.02-28.14-27.92-15.36.1-27.83,12.7-27.74,28.02Zm-110-167.21c-.05-16.25-12.57-27.88-28.09-27.86-15.71.03-27.79,12.57-27.79,27.86,0,15.81,12.97,28.2,27.8,27.71,15.46.45,28.14-11.83,28.09-27.71Zm138.1-193.67c-15.73-.02-28.08,12.2-28.1,27.82-.02,15.47,12.27,27.8,27.75,27.84,15.72.03,28.11-12.21,28.14-27.8.03-15.34-12.42-27.83-27.78-27.85Zm194.74,193.69c-.05-15.84-12-27.71-27.74-27.87-15.48-.16-28.02,11.81-28.11,27.8-.08,15.73,12.64,28.25,28.01,27.76,14.66.43,27.89-11.39,27.83-27.69Zm-49.09,117.73c-.11-16.2-12.58-27.44-27.35-27.68-16.04-.26-28.6,11.96-28.47,28.12.12,15.86,12.74,27.63,27.84,27.5,16.13.12,28.09-12.42,27.98-27.94Zm-.22-235.2c.05-16.28-12.3-28.33-28.04-28.2-16.15.13-27.56,12.33-27.75,27.96-.19,15.37,12.41,27.83,27.78,27.87,15.49.05,27.96-12.26,28.01-27.63Zm-263.58,207.09c-15.55.32-27.41,11.99-27.51,27.81-.1,16.04,12.59,28.05,27.95,27.92,15.52-.13,27.97-12.45,27.9-27.78-.08-15.67-12.63-28.28-28.34-27.96Zm.29-234.93c-15.64.25-27.81,11.91-27.69,27.91.12,16.13,11.81,27.69,27.84,27.84,16.1.14,27.91-12.47,27.95-27.95-.07-15.64-12.52-28.04-28.1-27.79Z"/></svg>